<svg fill="none" height="1024" viewBox="0 0 1440 1024" width="1440" xmlns="http://www.w3.org/2000/svg" xmlns:xlink="http://www.w3.org/1999/xlink"><mask id="a" height="407" maskUnits="userSpaceOnUse" width="208" x="421" y="61"><path d="m474.694 462.822c-3.239 1.247-6.808 1.781-10.498 1.428-1.368-.131-2.723-.377-4.049-.736-12.99-3.519-20.669-16.901-17.151-29.891l5.45-20.123-.078.044c-4.268 2.352-9.306 2.875-13.965 1.45-9.514-2.91-14.867-12.981-11.957-22.494l28.452-98.952c2.343-11.523 6.537-25.721 13.308-46.287l.794-2.761.033.258c8.337-25.186 20.395-59.672 37.413-109.758.317-.931 9.682-29.064 10-30 2.014-2.685 5.823-3.229 8.508-1.215 1.089.817 1.872 1.975 2.224 3.29l6.268 23.425 8.602-63.1855c.521-3.8307 4.049-6.5133 7.88-5.9919 2.729.3716 4.987 2.3092 5.768 4.9506l1.25 4.227 71.623 232.7718c2.902 9.432 4.377 19.246 4.377 29.115v93.613c0 22.644-18.356 41-41 41h-95.203c-6.468 0-12.597-1.5-18.049-4.178z" fill="#fff"/></mask><mask id="b" height="342" maskUnits="userSpaceOnUse" width="355" x="750" y="608"><path d="m946.151 711.026c22.302-54.451 37.603-84.677 45.902-90.677 10.177-7.355 21.687-5.623 26.537.385 16.1-15.622 32-16.011 47.68-1.169 1.36.912 2.6 1.831 3.72 2.756 5.4-.084 10.85.951 16.36 3.105 27.7 10.823 23.72 33.429-11.91 67.818l-102.007 117.343c-12.112 13.934-27.846 24.243-45.458 29.784-4.538 1.428-10.343 6.21-17.416 14.345-6.284 7.229-9.7 12.657-10.25 16.283-2.841 18.754-10.957 36.312-23.401 50.627l-13.069 15.035c-1.065 1.225-2.21 2.379-3.427 3.454-15.313 13.53-38.696 12.083-52.226-3.23l-23.787-26.925-.188.173-.279-.702-4.561-5.162 1.798-1.776-29.633-74.426 126.477-117.296 67.833 1.99c.436-.58.871-1.159 1.305-1.735z" fill="#fff"/></mask><mask id="c" height="28" maskUnits="userSpaceOnUse" width="51" x="538" y="371"><path d="m574.946 371h-22c-7.732 0-14 6.268-14 14s6.268 14 14 14h22c7.732 0 14-6.268 14-14s-6.268-14-14-14z" fill="#fff"/></mask><mask id="d" height="28" maskUnits="userSpaceOnUse" width="14" x="615" y="371"><path d="m628.946 371v28c-7.456 0-13.5-6.044-13.5-13.5v-1c0-7.456 6.044-13.5 13.5-13.5z" fill="#fff"/></mask><mask id="e" height="158" maskUnits="userSpaceOnUse" width="422" x="615" y="794"><path d="m877.451 865.347c55.726-18.892 88.576-27.174 98.549-24.847 12.225 2.852 18.472 12.679 17.117 20.277 22.353 1.908 33.083 13.649 32.163 35.223l-3.07 1.235c5.3 4.609 9.24 10.531 11.82 17.765 10 28-9.66 39.833-58.995 35.5h-155.481c-18.463 0-36.565-5.111-52.302-14.768-4.054-2.488-11.472-3.732-22.252-3.732-9.578 0-15.916.982-19.014 2.947-16.017 10.159-34.593 15.553-53.56 15.553h-19.922c-1.623 0-3.245-.107-4.854-.32-20.258-2.681-34.507-21.277-31.826-41.535l4.714-35.616-.253-.029.346-.671.904-6.829 2.52.192 36.73-71.192 171.5 18.5 43 52.5c.724-.051 1.446-.102 2.166-.153z" fill="#fff"/></mask><mask id="f" height="359" maskUnits="userSpaceOnUse" width="491" x="387" y="507"><path d="m425 598-35.593 158.468c-9.683 43.109 17.414 85.905 60.523 95.587 5.755 1.293 11.634 1.945 17.532 1.945h81.755c37.343 0 71.576-20.808 88.769-53.958l34.514-66.542-51 132h23.442c25.623 0 49.846-11.696 65.781-31.762l15.277-19.238v18c0 18.225 14.775 33 33 33 19.809 0 37.499-12.401 44.253-31.022l7.247-19.978 8.057 15.506c11.332 21.809 33.865 35.494 58.443 35.494-23.313-69.549-36.647-125.382-40-167.5s.481-105.618 11.5-190.5h-99l-178.5 107z" fill="#fff"/></mask><mask id="g" height="28" maskUnits="userSpaceOnUse" width="48" x="540" y="371"><path d="m587.073 378h-46.254c2.421-4.185 6.945-7 12.127-7h22c5.182 0 9.707 2.815 12.127 7zm-.636 15c-2.53 3.627-6.733 6-11.491 6h-22c-4.757 0-8.96-2.373-11.49-6z" fill="#fff"/></mask><mask id="h" height="28" maskUnits="userSpaceOnUse" width="13" x="616" y="371"><path d="m628.946 378h-12.127c2.421-4.185 6.945-7 12.127-7zm0 21c-4.757 0-8.96-2.373-11.49-6h11.49z" fill="#fff"/></mask><mask id="i" height="97" maskUnits="userSpaceOnUse" width="271" x="338" y="854"><path d="m396.255 886.618-58.255 63.882h271l-27.533-47.026c-17.942-30.643-50.788-49.474-86.297-49.474h-25.025c-28.121 0-54.942 11.84-73.89 32.618z" fill="#fff"/></mask><mask id="j" height="54" maskUnits="userSpaceOnUse" width="43" x="459" y="352"><path d="m491.284 405.925c-21.523-.893-32.284-9.762-32.284-26.607 0-17.327 11.386-26.416 34.158-27.267-.568 1.064-.988 2.507-1.158 4.449-.565 6.456 2.488 9.632 9.16 9.528-11.594 9.09-17.48 17.247-17.66 24.472-.158 6.336 2.612 12.044 7.784 15.425z" fill="#fff"/></mask><path d="m0 0h1440v1024h-1440z" fill="#fff"/><path clip-rule="evenodd" d="m735.687 386.53c6.612 5.031 10.548 11.422 6.254 18.616-3.623 6.07-11.937 6.132-20.815 3.899 1.33 3.769 2.887 7.456 4.661 11.043 3.863 7.808 7.1 13.445 9.713 16.912 4.971 6.597 14.157.295 27.558-18.905 5.29-7.579 13.949-12.095 23.192-12.095.845 0 1.687.086 2.515.256 6.745 1.389 11.088 7.984 9.699 14.73-14.89 72.324-26.708 111.781-35.453 118.37-13.996 10.547-27.001 57.164-27.001 57.164l-78.564-11.393-8.727-34.266c-2.656-10.43-3.097-21.301-1.292-31.912l19.509-114.734c1.304-7.666 3.718-15.101 7.167-22.07l7.356-14.865c5.769-11.659 18.022-18.665 30.996-17.724l70.185 5.092c5.973.433 11.186 4.207 13.462 9.746 3.315 8.066-.536 17.291-8.602 20.606-6.588 2.707-23.859 3.217-51.813 1.53z" fill="#8093b8" fill-rule="evenodd"/><path clip-rule="evenodd" d="m655 450.25-13.758 23.339c-.161.274-.311.555-.448.842l-48.794 102.069 9 53.5 78-59.5-4-58.5-23 15.5 12.424-73.813c.468-2.778-1.405-5.409-4.183-5.877-2.084-.35-4.168.62-5.241 2.44z" fill="#9aacd3" fill-rule="evenodd"/><path clip-rule="evenodd" d="m601.5 462.443c-19.038-6.961-38.075-13.923-57.113-20.884-46.683-17.07-98.364 6.935-115.434 53.618-3.248 8.88-5.075 18.217-5.416 27.667l-3.537 98.156h202c-13.667-105.705-20.5-158.557-20.5-158.557z" fill="#cbdbfe" fill-rule="evenodd"/><path clip-rule="evenodd" d="m592.863 271.983 46.239-3.847 7.965-53.486c.245-1.638 1.771-2.769 3.41-2.525 1.312.195 2.34 1.229 2.528 2.543l8.586 60.054c.86 6.014-3.318 11.586-9.332 12.446-.049.007-.098.014-.147.02l-54.324 7.022c-6.789.878-13.041-3.816-14.092-10.581-.858-5.526 2.925-10.702 8.451-11.56.238-.037.476-.066.716-.086z" fill="#dfe9ff" fill-rule="evenodd"/><g mask="url(#a)"><path d="m474.694 462.822c-3.239 1.247-6.808 1.781-10.498 1.428-1.368-.131-2.723-.377-4.049-.736-12.99-3.519-20.669-16.901-17.151-29.891l5.45-20.123-.078.044c-4.268 2.352-9.306 2.875-13.965 1.45-9.514-2.91-14.867-12.981-11.957-22.494l28.452-98.952c2.343-11.523 6.537-25.721 13.308-46.287l.794-2.761.033.258c8.337-25.186 20.395-59.672 37.413-109.758.317-.931 9.682-29.064 10-30 2.014-2.685 5.823-3.229 8.508-1.215 1.089.817 1.872 1.975 2.224 3.29l6.268 23.425 8.602-63.1855c.521-3.8307 4.049-6.5133 7.88-5.9919 2.729.3716 4.987 2.3092 5.768 4.9506l1.25 4.227 71.623 232.7718c2.902 9.432 4.377 19.246 4.377 29.115v93.613c0 22.644-18.356 41-41 41h-95.203c-6.468 0-12.597-1.5-18.049-4.178z" fill="#cbdbfe"/><path clip-rule="evenodd" d="m626.447 314c-2-5.333-5-7.5-9-6.5s-6.667 4.667-8 11c-6.165-10.018-17.498-15.649-29.206-14.511-3.42.332-7.185.836-11.294 1.511-24.268 3.988-35.794 27.951-37 40.5-1.026 10.668-.184 3.543.053 30.5.051 5.801-2.829 21.223-8.64 46.267-2.746 11.836 4.623 23.657 16.458 26.403 1.585.368 3.206.559 4.833.569 22.05.14 34.481.061 37.296-.239 14.882-1.586 18.107-5 29.053-5 9.234 0 13.734 2.333 13.5 7 15.986-6.274 24.635-22.107 25.947-47.5 1.311-25.393-6.689-55.393-24-90z" fill="#b0bfdc" fill-rule="evenodd"/></g><path clip-rule="evenodd" d="m579.946 426.5h8l-2.301 10.483c-.174.795-.814 1.405-1.617 1.542-1.088.186-2.122-.546-2.308-1.635zm39 0h8l-2.301 10.483c-.174.795-.814 1.405-1.617 1.542-1.088.186-2.122-.546-2.308-1.635z" fill="#fff" fill-rule="evenodd"/><g mask="url(#b)"><path d="m946.151 711.026c22.302-54.451 37.603-84.677 45.902-90.677 10.177-7.355 21.687-5.623 26.537.385 16.1-15.622 32-16.011 47.68-1.169 1.36.912 2.6 1.831 3.72 2.756 5.4-.084 10.85.951 16.36 3.105 27.7 10.823 23.72 33.429-11.91 67.818l-102.007 117.343c-12.112 13.934-27.846 24.243-45.458 29.784-4.538 1.428-10.343 6.21-17.416 14.345-6.284 7.229-9.7 12.657-10.25 16.283-2.841 18.754-10.957 36.312-23.401 50.627l-13.069 15.035c-1.065 1.225-2.21 2.379-3.427 3.454-15.313 13.53-38.696 12.083-52.226-3.23l-23.787-26.925-.188.173-.279-.702-4.561-5.162 1.798-1.776-29.633-74.426 126.477-117.296 67.833 1.99c.436-.58.871-1.159 1.305-1.735z" fill="#8093b8"/></g><g mask="url(#c)"><path d="m574.946 371h-22c-7.732 0-14 6.268-14 14s6.268 14 14 14h22c7.732 0 14-6.268 14-14s-6.268-14-14-14z" fill="#fff"/><path d="m589.446 382c0-6.075-4.925-11-11-11s-11 4.925-11 11v6c0 6.075 4.925 11 11 11s11-4.925 11-11z" fill="#2b2b2b"/></g><g mask="url(#d)"><path d="m628.946 371v28c-7.456 0-13.5-6.044-13.5-13.5v-1c0-7.456 6.044-13.5 13.5-13.5z" fill="#fff"/><path d="m644.946 382c0-6.075-4.925-11-11-11s-11 4.925-11 11v6c0 6.075 4.925 11 11 11s11-4.925 11-11z" fill="#2b2b2b"/></g><path clip-rule="evenodd" d="m851 794.5c16.121-2.48 29.744-13.267 35.855-28.39l.145-.36c6.26-15.495 4.495-33.078-4.72-47.019l-4.78-7.231c17.533 6.376 36.915-2.669 43.291-20.202.149-.41.29-.823.423-1.238l5.786-18.06c-28.828 2.784-49.161.784-61-6s-21.839-15.117-30-25l-9.5 16z" fill="#9aacd3" fill-rule="evenodd"/><g mask="url(#e)"><path d="m877.451 865.347c55.726-18.892 88.576-27.174 98.549-24.847 12.225 2.852 18.472 12.679 17.117 20.277 22.353 1.908 33.083 13.649 32.163 35.223l-3.07 1.235c5.3 4.609 9.24 10.531 11.82 17.765 10 28-9.66 39.833-58.995 35.5h-155.481c-18.463 0-36.565-5.111-52.302-14.768-4.054-2.488-11.472-3.732-22.252-3.732-9.578 0-15.916.982-19.014 2.947-16.017 10.159-34.593 15.553-53.56 15.553h-19.922c-1.623 0-3.245-.107-4.854-.32-20.258-2.681-34.507-21.277-31.826-41.535l4.714-35.616-.253-.029.346-.671.904-6.829 2.52.192 36.73-71.192 171.5 18.5 43 52.5c.724-.051 1.446-.102 2.166-.153z" fill="#b0bfdc"/><g fill="#7181a1"><path d="m1027.14 895.351c-.4-.562-1.16-1.463-2.34-2.587-1.91-1.827-4.3-3.642-7.22-5.328-13.92-8.032-34.104-10.415-61.544-3.882-1.074.256-1.738 1.335-1.482 2.409.256 1.075 1.334 1.739 2.409 1.483 26.48-6.305 45.627-4.046 58.617 3.454 2.63 1.523 4.77 3.144 6.46 4.754.57.553 1.05 1.061 1.43 1.511.22.253.35.419.39.484.64.904 1.88 1.123 2.79.488.9-.635 1.12-1.882.49-2.786z"/><path d="m1033.16 912.5c1.11 0 2 .896 2 2 0 1.105-.89 2-2 2-2.93 0-16.73-3.169-26.24-6.287-6.19-2.026-10.948-4.068-13.854-6.096-4.144-2.892-5.019-6.549-1.029-9.269 7.955-5.425 19.363-5.425 34.123-.235 1.04.367 1.59 1.508 1.23 2.55-.37 1.042-1.51 1.59-2.55 1.224-13.69-4.81-23.84-4.81-30.55-.234-1.182.806-1.094 1.177 1.065 2.684 2.504 1.747 6.965 3.662 12.805 5.575 9.14 2.994 22.61 6.088 25 6.088zm-24.66-54c1.1 0 2 .896 2 2 0 1.105-.9 2-2 2-3.27 0-5.6-.253-10.397-.984l-.135-.02c-6.836-1.041-10.168-1.244-15.449-.547-7.04.93-15.579 3.635-26.843 8.762-1.006.458-2.192.014-2.649-.992-.458-1.005-.014-2.191.992-2.648 11.597-5.279 20.502-8.1 27.976-9.087 5.741-.758 9.396-.536 16.575.557l.136.021c4.614.702 6.784.938 9.794.938z"/></g></g><path clip-rule="evenodd" d="m608.287 357.529 14.235 44.567c1.468 4.598-1.069 9.516-5.667 10.985-.811.259-1.656.398-2.507.413l-4.648.081c-3.865.067-7.053-3.011-7.121-6.877 0-.033-.001-.067-.001-.1l-.148-48.147c-.006-1.657 1.333-3.004 2.99-3.01 1.309-.004 2.469.841 2.867 2.088z" fill="#7181a1" fill-rule="evenodd"/><g mask="url(#f)"><path d="m425 598-35.593 158.468c-9.683 43.109 17.414 85.905 60.523 95.587 5.755 1.293 11.634 1.945 17.532 1.945h81.755c37.343 0 71.576-20.808 88.769-53.958l34.514-66.542-51 132h23.442c25.623 0 49.846-11.696 65.781-31.762l15.277-19.238v18c0 18.225 14.775 33 33 33 19.809 0 37.499-12.401 44.253-31.022l7.247-19.978 8.057 15.506c11.332 21.809 33.865 35.494 58.443 35.494-23.313-69.549-36.647-125.382-40-167.5s.481-105.618 11.5-190.5h-99l-178.5 107z" fill="#9aacd3"/></g><path d="m543.861 436.414c5.308-5.308 9.293-7.914 11.585-7.914h72.5c1.105 0 2-.895 2-2s-.895-2-2-2h-72.5c-3.708 0-8.389 3.061-14.414 9.086-.781.781-.781 2.047 0 2.828s2.047.781 2.829 0z" fill="#7181a1"/><g mask="url(#g)"><path d="m587.073 378h-46.254c2.421-4.185 6.945-7 12.127-7h22c5.182 0 9.707 2.815 12.127 7zm-.636 15c-2.53 3.627-6.733 6-11.491 6h-22c-4.757 0-8.96-2.373-11.49-6z" fill="#7181a1"/></g><path clip-rule="evenodd" d="m843.935 457.181-83.684 52.335 121.856 23.663 53.364-39.807c11.338-8.458 20.327-19.674 26.112-32.582l14.477-32.3c4.77-10.643 4.243-22.912-1.423-33.107l-8.224-14.797-.405.253c-1.574-8.877-3.446-19.438-5.618-31.681-1.197-6.75-5.343-12.614-11.307-15.994l-5.583-3.164-9.667-4.625-.88-8.628-57.46-50.829c-.169-.15-.341-.296-.517-.438-6.919-5.622-17.085-4.57-22.706 2.349-5.049 6.215-5.326 14.829-1.136 21.274-4.431.889-8.404 3.777-10.504 8.168-.304.634-.562 1.289-.773 1.96-2.921 9.295 1.657 19.294 10.602 23.156l48.911 21.117c2.967 29.405 4.451 44.108 4.451 44.108s-49.204 36.804-63.683 39.357c-9.652 1.702-17.032-.537-22.141-6.716l20.479-60.852c.059-.175.115-.352.169-.529 2.759-9.162-2.431-18.826-11.593-21.586-9.579-2.885-19.717 2.367-22.885 11.857-18.848 56.463-27.348 89.941-25.498 100.432 3.044 17.259-19.237 60.223-19.237 60.223z" fill="#b0bfdc" fill-rule="evenodd"/><g mask="url(#h)"><path d="m628.946 378h-12.127c2.421-4.185 6.945-7 12.127-7zm0 21c-4.757 0-8.96-2.373-11.49-6h11.49z" fill="#7181a1"/></g><path clip-rule="evenodd" d="m889.887 242.546-66.426-1.968c-7.115-.211-13.255 4.951-14.271 11.996l-21.325 147.925 83.042 10.363 13.02-9.021 19.419-143.423c1.037-7.662-4.333-14.714-11.995-15.752-.485-.065-.974-.106-1.464-.12z" fill="#2b2b2b" fill-rule="evenodd"/><path d="m837.5 398c-5.799 0-10.5-4.701-10.5-10.5s4.701-10.5 10.5-10.5 10.5 4.701 10.5 10.5-4.701 10.5-10.5 10.5zm0-4c3.59 0 6.5-2.91 6.5-6.5s-2.91-6.5-6.5-6.5-6.5 2.91-6.5 6.5 2.91 6.5 6.5 6.5zm27.864-145.154c.289.01.452-.003.524-.022-.004.001-.006.001.024-.024.113-.093.236-.282.343-.578.158-.436.226-.88.268-2.082l.005-.154 1.203-4.903 2.913.715-1.129 4.603c-.054 1.384-.168 2.094-.439 2.842-.279.771-.696 1.41-1.255 1.871-.689.568-1.407.771-2.562.73l-19.86-.693c-1.155-.04-1.858-.292-2.505-.907-.525-.499-.897-1.166-1.122-1.954-.226-.794-.286-1.534-.234-3.022l.005-.155 1.203-4.903 2.914.715-1.129 4.601c-.034 1.087.005 1.516.127 1.942.086.302.196.5.302.6.028.028.026.028.021.025.07.025.232.05.523.06z" fill="#fff"/><g mask="url(#i)"><path d="m396.255 886.618-58.255 63.882h271l-27.533-47.026c-17.942-30.643-50.788-49.474-86.297-49.474h-25.025c-28.121 0-54.942 11.84-73.89 32.618z" fill="#dfe9ff"/><g fill="#fff"><path d="m370.523 905.272 3.25-3.5c23.393 21.95 47.962 32.87 73.778 32.87 20.718 0 43.713-9.989 58.748-26.834 17.874-20.026 23.558-47.68 13.581-80.998l4.56-1.38c10.448 34.891 4.407 64.284-14.596 85.576-15.952 17.873-40.243 28.424-62.293 28.424-27.098 0-52.798-11.422-77.028-34.158zm208.571-11.602 1.812 4.66c-28.947 11.257-40.897 29.654-36.442 55.749l-4.928.842c-4.878-28.571 8.505-49.175 39.558-61.251z"/><path d="m377.523 886.005c20.235 18.913 41.719 28.425 64.381 28.425 18.466 0 38.791-8.795 52.144-23.697 15.906-17.752 20.962-42.256 12.229-71.303l-4.576 1.364c8.265 27.492 3.564 50.276-11.218 66.773-12.433 13.876-31.455 22.108-48.579 22.108-21.37 0-41.717-9.009-61.111-27.137z"/></g></g><g clip-rule="evenodd" fill-rule="evenodd"><path d="m633.947 303.5c4.5 18 0 26.5-15 26.5-10 0-20-4.666-30-14 5.333 9.334 2.333 14-9 14-17 0-19.5-10.558-19.5-11.5 0-.941-.614-17.008 3-20.5 1.857-1.794 10.366-1.794 25.527 0 26.982-8.333 41.973-6.5 44.973 5.5z" fill="#cbdbfe"/><path d="m513.539 352.623c4.5 18 0 26.5-15 26.5-10 0-20-4.667-30-14 5.334 9.333 2.334 14-9 14-17 0-19.5-10.559-19.5-11.5s-.613-17.008 3-20.5c1.858-1.795 10.367-1.795 25.528 0 26.982-8.333 41.972-6.5 44.972 5.5z" fill="#cbdbfe"/><path d="m851.5 226-11.5-27h-1.5c-23.196 0-42-18.804-42-42v-48.5c0-23.196 18.804-42 42-42h130c23.196 0 42 18.804 42 42v48.5c0 23.196-18.804 42-42 42h-97z" fill="#dfe9ff"/><path d="m755.664 503.879s24.499-41.738 22.363-59.133c-1.298-10.574 8.941-43.56 30.719-98.96 3.66-9.311 14.059-14.025 23.474-10.643 9.606 3.452 15.117 13.538 12.833 23.486l-12.317 53.635c-1.339 5.832 2.303 11.645 8.135 12.984 1.025.236 2.079.321 3.129.252" fill="#b0bfdc"/><path d="m575.678 360.767-33.112 5.943c-.544.097-1.064-.264-1.161-.808-.028-.158-.018-.32.029-.473l1.762-5.679c1.385-4.462 5.117-7.798 9.707-8.675l11.708-2.238 5.335 2.663-.145-3.656 2.766-.528c3.258-.623 6.404 1.513 7.026 4.771.058.301.092.607.103.913l.096 2.667c.088 2.486-1.665 4.66-4.114 5.1zm43.827-11.634c-2.111-.672-3.528-2.652-3.483-4.866l.091-4.523c.008-.431.083-.857.222-1.265.745-2.201 3.134-3.38 5.334-2.635l-.082 3.656 3.01-2.663 3.84 1.301c4.298 1.456 7.458 5.143 8.24 9.612l.985 5.625c.028.158.017.322-.032.475-.168.527-.73.817-1.256.65z" fill="#cbdbfe"/><path d="m600.739 461.84 16.945-9.01 2.049 16.318c.398 3.172-.603 6.36-2.743 8.735-4.067 4.513-11.023 4.874-15.536.807l-3.803-3.428-2.034 8.842c-.995 4.324-3.741 8.041-7.582 10.263-7.649 4.424-17.436 1.81-21.861-5.839l-8.14-14.074-10.754 22.27c-2.111 4.372-6.093 7.549-10.825 8.636-8.612 1.979-17.198-3.398-19.177-12.01l-4.721-20.548-7.845 12.158c-2.626 4.07-6.955 6.731-11.773 7.237-8.788.923-16.66-5.453-17.584-14.241l-1.997-19.011c16.27-1.454 27.632-1.435 34.088.055 1.689.39 3.114.897 4.276 1.522 3.771-1.72 9.012-2.227 15.724-1.522 6.07.638 14.286 2.367 24.649 5.186l-.991-1.712 51.36-8.135z" fill="#cbdbfe"/></g><path d="m515.471 493.968c2.226 9.689 11.885 15.738 21.574 13.512 5.323-1.223 9.803-4.797 12.178-9.716l9.112-18.87 6.25 10.806c4.977 8.605 15.988 11.546 24.594 6.569 4.321-2.5 7.41-6.681 8.529-11.546l1.272-5.528 1.277 1.151c.821.739 2.085.674 2.825-.147.739-.82.673-2.085-.147-2.824l-3.803-3.428c-1.133-1.021-2.946-.449-3.288 1.037l-2.034 8.842c-.871 3.784-3.273 7.036-6.634 8.98-6.693 3.872-15.257 1.584-19.129-5.109l-8.14-14.074c-.804-1.389-2.835-1.314-3.533.132l-10.753 22.27c-1.847 3.825-5.332 6.605-9.472 7.556-7.535 1.732-15.048-2.973-16.78-10.509l-4.721-20.547c-.396-1.724-2.671-2.123-3.63-.637l-7.845 12.158c-2.298 3.561-6.085 5.89-10.301 6.333-7.689.807-14.578-4.771-15.386-12.461l-1.997-19.011c-.115-1.099-1.099-1.896-2.198-1.78-1.098.115-1.895 1.099-1.78 2.198l1.997 19.011c1.039 9.886 9.895 17.059 19.782 16.021 5.42-.57 10.29-3.564 13.244-8.143l5.276-8.176z" fill="#b0bfdc"/><path clip-rule="evenodd" d="m477.865 282.729-45.92 6.654-19.793-50.324c-.606-1.542-2.348-2.3-3.89-1.694-1.234.486-2.003 1.725-1.891 3.047l5.143 60.446c.515 6.054 5.84 10.543 11.893 10.028.049-.004.098-.008.147-.013l54.512-5.378c6.812-.673 11.848-6.653 11.35-13.481-.406-5.577-5.258-9.769-10.835-9.363-.24.018-.478.044-.716.078z" fill="#dfe9ff" fill-rule="evenodd"/><path clip-rule="evenodd" d="m453.466 455.759 111.534 154.241 189.113-154.238c2.256-1.84 4.61-3.557 7.051-5.143l17.399-11.31c5.323-3.46 12.273-3.079 17.187.941 5.341 4.37 9.038 10.425 10.483 17.173l.767 3.577 13.455-6.59c6.695-3.28 14.781-.51 18.06 6.184 1.84 3.757 1.834 8.154-.015 11.906l16.673-2.847c2.543-.434 5.127-.577 7.702-.427l40.608 2.369c7.167.418 12.639 6.567 12.221 13.735-.045.769-.159 1.533-.339 2.283l-5.133 21.341c-.48 1.997-1.465 3.838-2.86 5.345l-37.81 40.852c-2.372 2.563-4.908 4.971-7.591 7.207l-294.231 245.192c-7.918 6.599-19.456 6.475-27.231-.293l-91.152-79.343c-11.98-10.428-18.857-25.532-18.857-41.414l-4.735 3.819c-6.239 5.031-15.18 4.897-21.265-.319-6.422-5.504-9.133-14.194-6.981-22.374l3.981-15.126-5.028 4.217c-5.765 4.835-14.359 4.082-19.194-1.684-.01-.011-.019-.022-.028-.033-5.449-6.538-7.172-15.41-4.568-23.512l4.818-14.988-6.35 4.233c-5.882 3.922-13.724 3.088-18.65-1.983-5.119-5.269-6.454-13.15-3.356-19.811l64.829-139.401c5.356-11.518 19.036-16.513 30.554-11.156 3.56 1.655 6.638 4.195 8.939 7.377z" fill="#cbdbfe" fill-rule="evenodd"/><path d="m518.666 543.394c-.611-.92-1.853-1.171-2.773-.56s-1.17 1.853-.559 2.773l43.5 65.5c.638.961 1.957 1.184 2.876.486l25-19c.879-.669 1.05-1.924.382-2.803s-1.923-1.05-2.802-.382l-23.303 17.71z" fill="#b0bfdc"/><path d="m856.425 789.958c-.081-.289-.829-2.774-1.096-3.675-.699-2.365-1.394-4.799-2.135-7.51-2.091-7.659-4.124-16.005-6.03-25.105-7.623-36.394-11.164-74.384-8.404-111.733.082-1.102-.745-2.061-1.847-2.142-1.101-.082-2.06.745-2.142 1.847-2.791 37.763.784 76.115 8.478 112.848 1.923 9.182 3.975 17.605 6.086 25.338.749 2.741 1.452 5.201 2.159 7.592.276.932 1.011 3.376 1.081 3.624.299 1.063 1.404 1.682 2.467 1.383s1.682-1.404 1.383-2.467z" fill="#cbdbfe"/><path d="m528.62 132.841 16.088 46.799c.359 1.045 1.497 1.601 2.542 1.242 1.044-.359 1.6-1.497 1.241-2.542l-16.088-46.799c-.359-1.045-1.497-1.6-2.542-1.241-1.044.359-1.6 1.497-1.241 2.541z" fill="#7181a1"/><g mask="url(#j)"><path d="m491.284 405.925c-21.523-.893-32.284-9.762-32.284-26.607 0-17.327 11.386-26.416 34.158-27.267-.568 1.064-.988 2.507-1.158 4.449-.565 6.456 2.488 9.632 9.16 9.528-11.594 9.09-17.48 17.247-17.66 24.472-.158 6.336 2.612 12.044 7.784 15.425z" fill="#b0bfdc"/></g><path d="m930.529 319.835c-.185-1.089.548-2.122 1.637-2.306 1.089-.185 2.121.547 2.306 1.636l11.068 65.176c1.628 9.586-1.835 19.331-9.147 25.742l-25.574 22.421c-.831.728-2.094.645-2.823-.185-.728-.831-.645-2.094.186-2.823l25.574-22.421c6.268-5.495 9.236-13.847 7.84-22.065zm33.496 61.977c-.172-1.091.572-2.115 1.663-2.287s2.116.572 2.288 1.663l2.924 18.517c1.092 6.916-.447 13.989-4.312 19.826l-18.92 28.574c-.61.92-1.851 1.173-2.772.563s-1.173-1.851-.563-2.772l18.92-28.573c3.313-5.004 4.632-11.066 3.696-16.994zm-63.095-40.338c.291 1.066-.338 2.165-1.403 2.456-1.066.29-2.165-.338-2.456-1.403l-3-11c-.291-1.066.337-2.166 1.403-2.456 1.066-.291 2.165.337 2.456 1.403zm-81.428-5.547c.04-1.104.968-1.966 2.072-1.925 1.104.04 1.966.968 1.925 2.072-.697 19.001-7.909 30.179-21.611 32.888-1.083.215-2.135-.49-2.35-1.574-.214-1.083.491-2.135 1.574-2.35 11.632-2.3 17.754-11.789 18.39-29.111z" fill="#7181a1"/><path d="m877.468 138.528v9.424h-8.68v7.068h-11.16v-7.068h-30.628v-9.424l30.628-26.908h11.16v26.908zm-38.44 0h18.6v-15.748zm66.774 17.112c-17.236 0-25.42-7.936-25.42-22.382 0-14.384 8.184-22.258 25.42-22.258 17.174 0 25.42 7.936 25.42 22.258 0 14.384-8.246 22.382-25.42 22.382zm0-9.362c9.796 0 14.26-4.898 14.26-13.02 0-8.06-4.464-12.896-14.26-12.896s-14.26 4.774-14.26 12.896c0 8.184 4.464 13.02 14.26 13.02zm79.546-7.75v9.424h-8.68v7.068h-11.16v-7.068h-30.628v-9.424l30.628-26.908h11.16v26.908zm-38.44 0h18.6v-15.748z" fill="#fff"/></svg>