<?xml version="1.0" encoding="UTF-8"?>
<!DOCTYPE svg PUBLIC "-//W3C//DTD SVG 1.1//EN" "http://www.w3.org/Graphics/SVG/1.1/DTD/svg11.dtd">
<!-- Creator: CorelDRAW -->
<svg xmlns="http://www.w3.org/2000/svg" xml:space="preserve" width="7.83333in" height="7.83333in" style="shape-rendering:geometricPrecision; text-rendering:geometricPrecision; image-rendering:optimizeQuality; fill-rule:evenodd; clip-rule:evenodd"
viewBox="0 0 7.83333 7.83333"
 xmlns:xlink="http://www.w3.org/1999/xlink">
 <defs>
  <style type="text/css">
   <![CDATA[
    .fil0 {fill:#7BCB9E}
    .fil7 {fill:#88ACBD}
    .fil5 {fill:#AF8D5A}
    .fil2 {fill:#B3E5FC}
    .fil8 {fill:#B9B9B9}
    .fil6 {fill:#C09A62}
    .fil3 {fill:whitesmoke}
    .fil4 {fill:#FFCC80}
    .fil1 {fill:#413B32;fill-rule:nonzero}
   ]]>
  </style>
 </defs>
 <g id="Layer_x0020_1">
  <metadata id="CorelCorpID_0Corel-Layer"/>
  <circle class="fil0" cx="3.91667" cy="3.91667" r="3.91667"/>
  <g id="_348336280">
   <path id="_348336712" class="fil1" d="M1.44247 1.84545l4.94838 0c0.0441811,0 0.08,0.0358189 0.08,0.08l0 3.98243c0,0.0441811 -0.0358189,0.08 -0.08,0.08l-4.94838 0c-0.0441811,0 -0.08,-0.0358189 -0.08,-0.08l0 -3.98243c0,-0.0441811 0.0358189,-0.08 0.08,-0.08zm4.86838 0.16l-4.78838 0 0 3.82243 4.78838 0 0 -3.82243z"/>
   <path id="_348336520" class="fil1" d="M1.44247 2.67583c-0.0441811,0 -0.08,0.0358189 -0.08,0.08 0,0.0441811 0.0358189,0.08 0.08,0.08l4.94838 0c0.0441811,0 0.08,-0.0358189 0.08,-0.08 0,-0.0441811 -0.0358189,-0.08 -0.08,-0.08l-4.94838 0z"/>
   <path id="_348337096" class="fil1" d="M2.86828 3.86546l0.14837 0.459634 0.489327 -0.000940945 0 -0.000311024c0.0441811,-8.26772e-005 0.0800709,0.0356654 0.0801535,0.0798465 5.11811e-005,0.028315 -0.0146102,0.0532205 -0.0367756,0.0674843l-0.392791 0.284224 0.152079 0.465008 0.000141732 -4.72441e-005c0.0137323,0.0419921 -0.00917717,0.0871693 -0.0511693,0.100902 -0.0280236,0.00916535 -0.0574646,0.00200394 -0.0780315,-0.016252l-0.389177 -0.283898 -0.395409 0.288449 0.000216535 0.000295276c-0.0356929,0.0260354 -0.0857402,0.0182087 -0.111776,-0.0174843 -0.0167913,-0.0230157 -0.0194882,-0.0520039 -0.00972441,-0.0766693l0.150535 -0.460303 -0.396398 -0.286835 -6.69291e-005 9.05512e-005c-0.0357913,-0.0258976 -0.043811,-0.0759173 -0.0179134,-0.111709 0.0171535,-0.0237047 0.0448898,-0.0352205 0.072063,-0.0327756l0.482232 0.000925197 0.150303 -0.465634 -0.00019685 -0.000200787c0.0135709,-0.0420472 0.0586614,-0.0651299 0.100709,-0.0515591 0.027626,0.00891732 0.047063,0.031437 0.0532992,0.0577598zm0.0143858 0.563807l-0.0922598 -0.285811 -0.0902992 0.279748c-0.00829134,0.0354173 -0.0401142,0.0617598 -0.0780472,0.061689l0 -0.000311024 -0.300323 -0.00057874 0.239618 0.17339c0.0300354,0.0191654 0.0445276,0.0568622 0.0329409,0.0922913l-0.000141732 -4.72441e-005 -0.0934173 0.28565 0.236469 -0.172504c0.0275197,-0.0245472 0.0693465,-0.0274843 0.100346,-0.00487008l-0.000216535 0.000295276 0.242744 0.177079 -0.0918425 -0.280815c-0.0132953,-0.033252 -0.00291339,-0.0725197 0.0274173,-0.0944646l6.69291e-005 9.05512e-005 0.243354 -0.176094 -0.293173 0.000562992c-0.0364724,0.00337402 -0.0717087,-0.0187874 -0.0834291,-0.0550984l0.000192913 -0.000200787z"/>
   <path id="_348336736" class="fil1" d="M4.87614 3.40007l0.205874 0.63778 0.67648 -0.00129921 0 -0.000311024c0.0441811,-8.26772e-005 0.0800709,0.0356654 0.0801535,0.0798465 5.11811e-005,0.028315 -0.0146102,0.0532205 -0.0367756,0.0674843l-0.544413 0.393937 0.210256 0.64289 0.000141732 -4.72441e-005c0.0137323,0.0419921 -0.00917717,0.0871693 -0.0511693,0.100902 -0.0280236,0.00916535 -0.0574646,0.00200394 -0.0780315,-0.016252l-0.540374 -0.394193 -0.54661 0.398744 0.000216535 0.000295276c-0.0356929,0.0260354 -0.0857402,0.0182087 -0.111776,-0.0174843 -0.0167913,-0.0230157 -0.0194882,-0.052 -0.00972441,-0.0766693l0.208713 -0.638185 -0.548016 -0.396547 -6.69291e-005 9.05512e-005c-0.0357913,-0.0258976 -0.043811,-0.0759173 -0.0179134,-0.111709 0.0171535,-0.0237047 0.0448898,-0.0352205 0.072063,-0.0327756l0.669378 0.00128346 0.207799 -0.643732 -0.000192913 -0.000200787c0.0135709,-0.0420433 0.0586614,-0.065126 0.100705,-0.0515551 0.0276024,0.00890945 0.0470315,0.0314094 0.0532835,0.0577087zm0.0718898 0.741953l-0.149748 -0.463913 -0.147795 0.45785c-0.00829134,0.0354173 -0.0401142,0.0617598 -0.0780472,0.061689l0 -0.000311024 -0.487469 -0.000937008 0.391236 0.283102c0.0300354,0.0191654 0.0445276,0.0568622 0.0329409,0.0922913l-0.000141732 -4.72441e-005 -0.151594 0.463531 0.387669 -0.282799c0.0275197,-0.0245472 0.0693465,-0.0274843 0.100346,-0.00487008l-0.000216535 0.000295276 0.393937 0.28737 -0.150016 -0.458693c-0.0132953,-0.033252 -0.00291339,-0.0725197 0.0274173,-0.0944646l6.69291e-005 9.05512e-005 0.394976 -0.285807 -0.480283 0.00092126c-0.0364961,0.0033937 -0.071752,-0.0187677 -0.0834764,-0.0550984l0.00019685 -0.000200787z"/>
   <polygon id="_348336808" class="fil2" points="1.52247,2.67583 6.31085,2.67583 6.31085,2.00545 1.52247,2.00545 "/>
   <path id="_348336616" class="fil3" d="M6.31085 2.83583l-4.78838 0 0 2.99205 4.78838 0 0 -2.99205zm-1.79631 1.20202l0.207799 -0.643732 -0.000192913 -0.000200787c0.0135709,-0.0420433 0.0586614,-0.065126 0.100705,-0.0515551 0.0276024,0.00890945 0.0470315,0.0314094 0.0532835,0.0577087l0.205874 0.63778 0.67648 -0.00129921 0 -0.000311024c0.0441811,-8.26772e-005 0.0800709,0.0356654 0.0801535,0.0798465 5.11811e-005,0.028315 -0.0146102,0.0532205 -0.0367756,0.0674843l-0.544413 0.393937 0.210256 0.64289 0.000141732 -4.72441e-005c0.0137323,0.0419921 -0.00917717,0.0871693 -0.0511693,0.100902 -0.0280236,0.00916535 -0.0574646,0.00200394 -0.0780315,-0.016252l-0.540374 -0.394193 -0.54661 0.398744 0.000216535 0.000295276c-0.0356929,0.0260354 -0.0857402,0.0182087 -0.111776,-0.0174843 -0.0167913,-0.0230157 -0.0194882,-0.052 -0.00972441,-0.0766693l0.208713 -0.638185 -0.548016 -0.396547 -6.69291e-005 9.05512e-005c-0.0357913,-0.0258976 -0.043811,-0.0759173 -0.0179134,-0.111709 0.0171535,-0.0237047 0.0448898,-0.0352205 0.072063,-0.0327756l0.669378 0.00128346zm-1.64627 -0.172398l0.14837 0.459634 0.489327 -0.000940945 0 -0.000311024c0.0441811,-8.26772e-005 0.0800709,0.0356654 0.0801535,0.0798465 5.11811e-005,0.028315 -0.0146102,0.0532205 -0.0367756,0.0674843l-0.392791 0.284224 0.152079 0.465008 0.000141732 -4.72441e-005c0.0137323,0.0419921 -0.00917717,0.0871693 -0.0511693,0.100902 -0.0280236,0.00916535 -0.0574646,0.00200394 -0.0780315,-0.016252l-0.389177 -0.283898 -0.395409 0.288449 0.000216535 0.000295276c-0.0356929,0.0260354 -0.0857402,0.0182087 -0.111776,-0.0174843 -0.0167913,-0.0230157 -0.0194882,-0.0520039 -0.00972441,-0.0766693l0.150535 -0.460303 -0.396398 -0.286835 -6.69291e-005 9.05512e-005c-0.0357913,-0.0258976 -0.043811,-0.0759173 -0.0179134,-0.111709 0.0171535,-0.0237047 0.0448898,-0.0352205 0.072063,-0.0327756l0.482232 0.000925197 0.150303 -0.465634 -0.00019685 -0.000200787c0.0135709,-0.0420472 0.0586614,-0.0651299 0.100709,-0.0515591 0.027626,0.00891732 0.047063,0.031437 0.0532992,0.0577598z"/>
   <path id="_348336832" class="fil4" d="M2.9659 4.48456c-0.0364724,0.00337402 -0.0717087,-0.0187874 -0.0834291,-0.0550984l0.000192913 -0.000200787 -0.0922598 -0.285811 -0.0902992 0.279748c-0.00829134,0.0354173 -0.0401142,0.0617598 -0.0780472,0.061689l0 -0.000311024 -0.300323 -0.00057874 0.239618 0.17339c0.0300354,0.0191654 0.0445276,0.0568622 0.0329409,0.0922913l-0.000141732 -4.72441e-005 -0.0934173 0.28565 0.236469 -0.172504c0.0275197,-0.0245472 0.0693465,-0.0274843 0.100346,-0.00487008l-0.000216535 0.000295276 0.242744 0.177079 -0.0918425 -0.280815c-0.0132953,-0.033252 -0.00291339,-0.0725197 0.0274173,-0.0944646l6.69291e-005 9.05512e-005 0.243354 -0.176094 -0.293173 0.000562992z"/>
   <path id="_348336184" class="fil4" d="M4.08497 4.19641l0.391236 0.283102c0.0300354,0.0191654 0.0445276,0.0568622 0.0329409,0.0922913l-0.000141732 -4.72441e-005 -0.151594 0.463531 0.387669 -0.282799c0.0275197,-0.0245472 0.0693465,-0.0274843 0.100346,-0.00487008l-0.000216535 0.000295276 0.393937 0.28737 -0.150016 -0.458693c-0.0132953,-0.033252 -0.00291339,-0.0725197 0.0274173,-0.0944646l6.69291e-005 9.05512e-005 0.394976 -0.285807 -0.480283 0.00092126c-0.0364961,0.0033937 -0.071752,-0.0187677 -0.0834764,-0.0550984l0.00019685 -0.000200787 -0.149748 -0.463913 -0.147795 0.45785c-0.00829134,0.0354173 -0.0401142,0.0617598 -0.0780472,0.061689l0 -0.000311024 -0.487469 -0.000937008z"/>
   <path id="_348336064" class="fil5" d="M2.79037 4.14354l0 0.699c0.0163858,-1.9685e-005 0.0329213,0.00497638 0.0471732,0.0153701l-0.000216535 0.000295276 0.242744 0.177079 -0.0918425 -0.280815c-0.0132953,-0.033252 -0.00291339,-0.0725197 0.0274173,-0.0944646l6.69291e-005 9.05512e-005 0.243354 -0.176094 -0.293173 0.000562992c-0.0364724,0.00337402 -0.0717087,-0.0187874 -0.0834291,-0.0550984l0.000192913 -0.000200787 -0.0922598 -0.285811 -2.75591e-005 8.66142e-005z"/>
   <path id="_348335800" class="fil6" d="M4.79828 3.67811l0 1.05413c0.016374,-1.5748e-005 0.0329016,0.00498031 0.0471457,0.0153701l-0.000216535 0.000295276 0.393937 0.28737 -0.150016 -0.458693c-0.0132953,-0.033252 -0.00291339,-0.0725197 0.0274173,-0.0944646l6.69291e-005 9.05512e-005 0.394976 -0.285807 -0.480283 0.00092126c-0.0364961,0.0033937 -0.071752,-0.0187677 -0.0834764,-0.0550984l0.00019685 -0.000200787 -0.149748 -0.463913z"/>
   <g>
    <rect id="_348335920" class="fil7" x="6.01915" y="2.00545" width="0.291709" height="0.670378"/>
    <rect id="_348336328" class="fil8" x="6.01915" y="2.83583" width="0.291709" height="2.99205"/>
   </g>
  </g>
 </g>
</svg>
